<svg width="12" height="7" viewBox="0 0 12 7" fill="none" xmlns="http://www.w3.org/2000/svg">
<path d="M6.85231 6.78727L11.8062 1.83333C11.9208 1.71875 11.984 1.56579 11.984 1.40271C11.984 1.23962 11.9208 1.08666 11.8062 0.972085L11.4414 0.607262C11.2038 0.369869 10.8175 0.369868 10.5802 0.607262L6.42025 4.76721L2.25568 0.602646C2.14101 0.488067 1.98815 0.424804 1.82515 0.424804C1.66197 0.424804 1.50911 0.488067 1.39435 0.602646L1.02971 0.967469C0.915039 1.08214 0.851867 1.235 0.851867 1.39809C0.851867 1.56118 0.915039 1.71413 1.02971 1.82871L5.98809 6.78727C6.10312 6.90212 6.2567 6.9652 6.41997 6.96484C6.58388 6.9652 6.73737 6.90212 6.85231 6.78727Z" fill="#161616" fill-opacity="0.6"/>
</svg>
