<svg width="11" height="21" viewBox="0 0 11 21" fill="none" xmlns="http://www.w3.org/2000/svg">
<path d="M9.43902 0.00270476C9.8031 0.00202189 10.1559 0.123814 10.4363 0.346941C10.5941 0.472586 10.7245 0.626896 10.8201 0.801031C10.9157 0.975166 10.9746 1.1657 10.9934 1.36173C11.0122 1.55776 10.9906 1.75543 10.9298 1.94342C10.8689 2.13141 10.7701 2.30602 10.6389 2.45726L3.65795 10.4795L10.3895 18.5167C10.519 18.6697 10.6156 18.8459 10.674 19.035C10.7323 19.2241 10.7511 19.4224 10.7294 19.6185C10.7077 19.8146 10.6458 20.0046 10.5474 20.1777C10.449 20.3508 10.3159 20.5035 10.1558 20.627C9.99458 20.7632 9.80578 20.866 9.60124 20.9288C9.3967 20.9917 9.18085 21.0132 8.96722 20.9922C8.7536 20.9711 8.54682 20.9078 8.35986 20.8063C8.1729 20.7049 8.00979 20.5674 7.88078 20.4025L0.354481 11.4224C0.125293 11.1546 1.01727e-06 10.8187 9.86961e-07 10.472C9.56654e-07 10.1253 0.125293 9.7894 0.354481 9.5216L8.14568 0.541512C8.302 0.360386 8.50057 0.217209 8.72528 0.123593C8.94999 0.029978 9.19452 -0.0114401 9.43902 0.00270476Z" fill="#303030"/>
</svg>
