<svg width="14" height="14" viewBox="0 0 14 14" fill="none" xmlns="http://www.w3.org/2000/svg">
<path d="M0.77126 14C0.664679 13.9998 0.559302 13.9774 0.461831 13.9343C0.36436 13.8912 0.276927 13.8282 0.205091 13.7495C0.131957 13.6714 0.0761504 13.5787 0.0413315 13.4776C0.00651273 13.3764 -0.00653185 13.269 0.00305294 13.1624L0.191263 11.0923L8.88583 2.39845L11.603 5.11557L2.91072 13.8087L0.841166 13.9969C0.817927 13.9991 0.794598 14.0001 0.77126 14ZM12.1453 4.5723L9.42895 1.85518L11.0583 0.225366C11.1297 0.153922 11.2144 0.097244 11.3076 0.058574C11.4009 0.019904 11.5009 0 11.6018 0C11.7028 0 11.8027 0.019904 11.896 0.058574C11.9893 0.097244 12.074 0.153922 12.1453 0.225366L13.7747 1.85518C13.8461 1.92654 13.9028 2.01129 13.9414 2.10457C13.9801 2.19786 14 2.29785 14 2.39883C14 2.49981 13.9801 2.5998 13.9414 2.69309C13.9028 2.78637 13.8461 2.87112 13.7747 2.94249L12.1461 4.57153L12.1453 4.5723Z" fill="#349EB8"/>
</svg>
