<svg width="22" height="22" viewBox="0 0 22 22" fill="none" xmlns="http://www.w3.org/2000/svg">
<path fill-rule="evenodd" clip-rule="evenodd" d="M11 0.504473C8.21523 0.504473 5.54451 1.61072 3.57538 3.57985C1.60625 5.54898 0.5 8.2197 0.5 11.0045V11.6495C0.635 13.9145 3.365 14.3345 5 12.6995C5.53472 12.2243 6.2308 11.9713 6.94586 11.9924C7.66092 12.0134 8.34092 12.3069 8.84676 12.8127C9.3526 13.3186 9.64606 13.9986 9.66711 14.7136C9.68816 15.4287 9.43521 16.1248 8.96 16.6595C7.31 18.3995 7.775 21.2645 10.16 21.4595H11.06C13.8448 21.4595 16.5155 20.3532 18.4846 18.3841C20.4538 16.415 21.56 13.7442 21.56 10.9595C21.56 8.1747 20.4538 5.50398 18.4846 3.53485C16.5155 1.56572 13.8448 0.459473 11.06 0.459473L11 0.504473ZM11 20.0045H10.22C10.0213 19.9982 9.83072 19.9241 9.68 19.7945C9.56079 19.671 9.48226 19.5139 9.455 19.3445C9.40719 19.0522 9.42989 18.7526 9.52121 18.4709C9.61253 18.1891 9.76982 17.9332 9.98 17.7245C10.7607 16.921 11.1974 15.8448 11.1974 14.7245C11.1974 13.6042 10.7607 12.528 9.98 11.7245C9.58021 11.3244 9.10552 11.0071 8.58304 10.7906C8.06057 10.5741 7.50056 10.4627 6.935 10.4627C6.36944 10.4627 5.80943 10.5741 5.28696 10.7906C4.76448 11.0071 4.28979 11.3244 3.89 11.7245C3.72601 11.9161 3.51633 12.0633 3.28036 12.1525C3.04439 12.2416 2.78975 12.2698 2.54 12.2345C2.41391 12.2104 2.29852 12.1474 2.21 12.0545C2.10694 11.9336 2.05337 11.7782 2.06 11.6195V11.0645C2.06 9.28444 2.58784 7.54438 3.57677 6.06434C4.56571 4.5843 5.97131 3.43075 7.61585 2.74956C9.26038 2.06837 11.07 1.89014 12.8158 2.2374C14.5616 2.58467 16.1653 3.44184 17.424 4.70051C18.6826 5.95918 19.5398 7.56283 19.8871 9.30866C20.2343 11.0545 20.0561 12.8641 19.3749 14.5086C18.6937 16.1532 17.5402 17.5588 16.0601 18.5477C14.5801 19.5366 12.84 20.0645 11.06 20.0645L11 20.0045ZM12.5 4.99547C12.5 5.3933 12.342 5.77483 12.0607 6.05613C11.7794 6.33744 11.3978 6.49547 11 6.49547C10.6022 6.49547 10.2206 6.33744 9.93934 6.05613C9.65804 5.77483 9.5 5.3933 9.5 4.99547C9.5 4.59765 9.65804 4.21612 9.93934 3.93481C10.2206 3.65351 10.6022 3.49547 11 3.49547C11.3978 3.49547 11.7794 3.65351 12.0607 3.93481C12.342 4.21612 12.5 4.59765 12.5 4.99547ZM17 15.506C17 15.9038 16.842 16.2853 16.5607 16.5666C16.2794 16.8479 15.8978 17.006 15.5 17.006C15.1022 17.006 14.7206 16.8479 14.4393 16.5666C14.158 16.2853 14 15.9038 14 15.506C14 15.1081 14.158 14.7266 14.4393 14.4453C14.7206 14.164 15.1022 14.006 15.5 14.006C15.8978 14.006 16.2794 14.164 16.5607 14.4453C16.842 14.7266 17 15.1081 17 15.506ZM6.5 8.00597C6.89782 8.00597 7.27936 7.84794 7.56066 7.56663C7.84196 7.28533 8 6.9038 8 6.50597C8 6.10815 7.84196 5.72662 7.56066 5.44531C7.27936 5.16401 6.89782 5.00597 6.5 5.00597C6.10218 5.00597 5.72064 5.16401 5.43934 5.44531C5.15804 5.72662 5 6.10815 5 6.50597C5 6.9038 5.15804 7.28533 5.43934 7.56663C5.72064 7.84794 6.10218 8.00597 6.5 8.00597ZM17 6.50597C17 6.9038 16.842 7.28533 16.5607 7.56663C16.2794 7.84794 15.8978 8.00597 15.5 8.00597C15.1022 8.00597 14.7206 7.84794 14.4393 7.56663C14.158 7.28533 14 6.9038 14 6.50597C14 6.10815 14.158 5.72662 14.4393 5.44531C14.7206 5.16401 15.1022 5.00597 15.5 5.00597C15.8978 5.00597 16.2794 5.16401 16.5607 5.44531C16.842 5.72662 17 6.10815 17 6.50597ZM18.5 11C18.5 11.3978 18.342 11.7793 18.0607 12.0606C17.7794 12.3419 17.3978 12.5 17 12.5C16.6022 12.5 16.2206 12.3419 15.9393 12.0606C15.658 11.7793 15.5 11.3978 15.5 11C15.5 10.6021 15.658 10.2206 15.9393 9.93931C16.2206 9.65801 16.6022 9.49997 17 9.49997C17.3978 9.49997 17.7794 9.65801 18.0607 9.93931C18.342 10.2206 18.5 10.6021 18.5 11Z" fill="#989898"/>
</svg>
