<svg width="22" height="22" viewBox="0 0 22 22" fill="none" xmlns="http://www.w3.org/2000/svg">
<path d="M16.6933 11.0001C16.6906 10.1036 16.5945 9.20994 16.4067 8.3334H18.8067C18.6831 7.96777 18.5338 7.61133 18.36 7.26673H16.1267C15.7068 5.8641 15.0557 4.54146 14.2 3.3534C13.6533 3.12353 13.0833 2.95365 12.5 2.84673C13.6722 4.10622 14.557 5.60519 15.0933 7.24007H11.5V2.7334H10.5V7.24673H6.90667C7.44405 5.6089 8.33123 4.10753 9.50667 2.84673C8.92585 2.95187 8.35811 3.11951 7.81334 3.34673C6.95431 4.52981 6.29865 5.8479 5.87334 7.24673H3.62667C3.44972 7.59762 3.29822 7.96078 3.17334 8.3334H5.59334C5.40553 9.20994 5.30946 10.1036 5.30667 11.0001C5.30852 11.9806 5.42033 12.9578 5.64001 13.9134H3.28001C3.41793 14.2871 3.5828 14.6503 3.77334 15.0001H5.92667C6.33481 16.2773 6.93988 17.4829 7.72001 18.5734C8.27865 18.813 8.86225 18.9897 9.46001 19.1001C8.37195 17.9132 7.53518 16.5186 7.00001 15.0001H10.5067V19.2267H11.5067V15.0001H15C14.463 16.5192 13.6239 17.9139 12.5333 19.1001C13.1339 18.9858 13.7198 18.8047 14.28 18.5601C15.0589 17.4737 15.6639 16.2726 16.0733 15.0001H18.2067C18.3963 14.6567 18.5612 14.3003 18.7 13.9334H16.3333C16.5635 12.9723 16.6843 11.9883 16.6933 11.0001ZM10.5 13.9134H6.67334C6.20399 12.0786 6.18341 10.1578 6.61334 8.3134H10.5V13.9134ZM15.3267 13.9134H11.5V8.3334H15.3867C15.5782 9.20922 15.6721 10.1036 15.6667 11.0001C15.6721 11.9814 15.5579 12.9597 15.3267 13.9134Z" fill="#989898"/>
<path d="M11 0.333496C8.89032 0.333496 6.82803 0.959085 5.0739 2.13115C3.31978 3.30322 1.9526 4.96913 1.14527 6.91821C0.337935 8.86728 0.126699 11.012 0.538275 13.0811C0.94985 15.1503 1.96575 17.0509 3.45751 18.5426C4.94927 20.0344 6.84989 21.0503 8.91902 21.4619C10.9882 21.8734 13.1329 21.6622 15.0819 20.8549C17.031 20.0475 18.6969 18.6804 19.869 16.9262C21.0411 15.1721 21.6667 13.1098 21.6667 11.0002C21.6667 8.17119 20.5428 5.45808 18.5425 3.45769C16.5421 1.4573 13.829 0.333496 11 0.333496ZM11 20.3335C9.15403 20.3335 7.34952 19.7861 5.81466 18.7605C4.2798 17.735 3.08353 16.2773 2.37711 14.5719C1.67069 12.8664 1.48586 10.9898 1.84599 9.17932C2.20612 7.36883 3.09503 5.70579 4.40032 4.4005C5.70561 3.09521 7.36865 2.2063 9.17914 1.84617C10.9896 1.48604 12.8663 1.67087 14.5717 2.37729C16.2771 3.0837 17.7348 4.27998 18.7604 5.81484C19.7859 7.3497 20.3333 9.1542 20.3333 11.0002C20.3333 13.4755 19.35 15.8495 17.5996 17.5998C15.8493 19.3502 13.4753 20.3335 11 20.3335Z" fill="#989898"/>
</svg>
