<svg width="22" height="22" viewBox="0 0 22 22" fill="none" xmlns="http://www.w3.org/2000/svg">
<path d="M6.92 0.198242H3.54V1.69824H6.92V0.198242ZM10.21 3.50924C10.21 1.69191 8.75205 0.198242 6.92 0.198242V1.69824C7.90795 1.69824 8.71 2.50458 8.71 3.50924H10.21ZM10.21 6.91824V3.50924H8.71V6.91824H10.21ZM6.92 10.2282C8.74996 10.2282 10.21 8.74669 10.21 6.91824H8.71C8.71 7.9298 7.91004 8.72824 6.92 8.72824V10.2282ZM3.54 10.2282H6.92V8.72824H3.54V10.2282ZM0.25 6.91824C0.25 8.74862 1.72196 10.2282 3.54 10.2282V8.72824C2.55804 8.72824 1.75 7.92787 1.75 6.91824H0.25ZM0.25 3.50924V6.91824H1.75V3.50924H0.25ZM3.54 0.198242C1.71987 0.198242 0.25 1.68997 0.25 3.50924H1.75C1.75 2.50651 2.56013 1.69824 3.54 1.69824V0.198242ZM6.92 11.6679H3.54V13.1679H6.92V11.6679ZM10.21 14.9789C10.21 13.1509 8.75034 11.6679 6.92 11.6679V13.1679C7.90966 13.1679 8.71 13.967 8.71 14.9789H10.21ZM10.21 18.3879V14.9789H8.71V18.3879H10.21ZM6.92 21.6979C8.75186 21.6979 10.21 20.2045 10.21 18.3879H8.71C8.71 19.3914 7.90814 20.1979 6.92 20.1979V21.6979ZM3.54 21.6979H6.92V20.1979H3.54V21.6979ZM0.25 18.3879C0.25 20.2064 1.72006 21.6979 3.54 21.6979V20.1979C2.55994 20.1979 1.75 19.3895 1.75 18.3879H0.25ZM0.25 14.9789V18.3879H1.75V14.9789H0.25ZM3.54 11.6679C1.72158 11.6679 0.25 13.1489 0.25 14.9789H1.75C1.75 13.9689 2.55842 13.1679 3.54 13.1679V11.6679ZM15.0801 1.69824H18.4601V0.198242H15.0801V1.69824ZM13.2901 3.50924C13.2901 2.50458 14.0921 1.69824 15.0801 1.69824V0.198242C13.2481 0.198242 11.7901 1.69191 11.7901 3.50924H13.2901ZM13.2901 6.91824V3.50924H11.7901V6.91824H13.2901ZM15.0801 8.72824C14.0901 8.72824 13.2901 7.9298 13.2901 6.91824H11.7901C11.7901 8.74669 13.2501 10.2282 15.0801 10.2282V8.72824ZM18.4601 8.72824H15.0801V10.2282H18.4601V8.72824ZM20.2501 6.91824C20.2501 7.92787 19.4421 8.72824 18.4601 8.72824V10.2282C20.2781 10.2282 21.7501 8.74862 21.7501 6.91824H20.2501ZM20.2501 3.50924V6.91824H21.7501V3.50924H20.2501ZM18.4601 1.69824C19.44 1.69824 20.2501 2.50651 20.2501 3.50924H21.7501C21.7501 1.68997 20.2802 0.198242 18.4601 0.198242V1.69824ZM18.4601 11.6679H15.0801V13.1679H18.4601V11.6679ZM21.7501 14.9789C21.7501 13.1489 20.2785 11.6679 18.4601 11.6679V13.1679C19.4417 13.1679 20.2501 13.9689 20.2501 14.9789H21.7501ZM21.7501 18.3879V14.9789H20.2501V18.3879H21.7501ZM18.4601 21.6979C20.28 21.6979 21.7501 20.2064 21.7501 18.3879H20.2501C20.2501 19.3895 19.4402 20.1979 18.4601 20.1979V21.6979ZM15.0801 21.6979H18.4601V20.1979H15.0801V21.6979ZM11.7901 18.3879C11.7901 20.2045 13.2482 21.6979 15.0801 21.6979V20.1979C14.092 20.1979 13.2901 19.3914 13.2901 18.3879H11.7901ZM11.7901 14.9789V18.3879H13.2901V14.9789H11.7901ZM15.0801 11.6679C13.2498 11.6679 11.7901 13.1509 11.7901 14.9789H13.2901C13.2901 13.967 14.0904 13.1679 15.0801 13.1679V11.6679Z" fill="white"/>
</svg>
