<svg width="14" height="15" viewBox="0 0 14 15" fill="none" xmlns="http://www.w3.org/2000/svg">
<path d="M5.6875 2.1875H8.3125C8.3125 1.8394 8.17422 1.50556 7.92808 1.25942C7.68194 1.01328 7.3481 0.875 7 0.875C6.6519 0.875 6.31806 1.01328 6.07192 1.25942C5.82578 1.50556 5.6875 1.8394 5.6875 2.1875ZM4.8125 2.1875C4.8125 1.60734 5.04297 1.05094 5.4532 0.640704C5.86344 0.230468 6.41984 0 7 0C7.58016 0 8.13656 0.230468 8.5468 0.640704C8.95703 1.05094 9.1875 1.60734 9.1875 2.1875H13.5625C13.6785 2.1875 13.7898 2.23359 13.8719 2.31564C13.9539 2.39769 14 2.50897 14 2.625C14 2.74103 13.9539 2.85231 13.8719 2.93436C13.7898 3.01641 13.6785 3.0625 13.5625 3.0625H12.6402L11.5955 12.1135C11.5217 12.7533 11.2152 13.3436 10.7344 13.7721C10.2536 14.2006 9.63204 14.4375 8.988 14.4375H5.012C4.36796 14.4375 3.74641 14.2006 3.26562 13.7721C2.78483 13.3436 2.47835 12.7533 2.4045 12.1135L1.35975 3.0625H0.4375C0.321468 3.0625 0.210188 3.01641 0.128141 2.93436C0.0460937 2.85231 0 2.74103 0 2.625C0 2.50897 0.0460937 2.39769 0.128141 2.31564C0.210188 2.23359 0.321468 2.1875 0.4375 2.1875H4.8125ZM3.27338 12.0138C3.32275 12.4402 3.52717 12.8337 3.84774 13.1192C4.16832 13.4048 4.58268 13.5626 5.012 13.5625H8.988C9.41732 13.5626 9.83168 13.4048 10.1523 13.1192C10.4728 12.8337 10.6773 12.4402 10.7266 12.0138L11.7591 3.0625H2.24087L3.27338 12.0138ZM5.6875 5.25C5.80353 5.25 5.91481 5.29609 5.99686 5.37814C6.07891 5.46019 6.125 5.57147 6.125 5.6875V10.9375C6.125 11.0535 6.07891 11.1648 5.99686 11.2469C5.91481 11.3289 5.80353 11.375 5.6875 11.375C5.57147 11.375 5.46019 11.3289 5.37814 11.2469C5.29609 11.1648 5.25 11.0535 5.25 10.9375V5.6875C5.25 5.57147 5.29609 5.46019 5.37814 5.37814C5.46019 5.29609 5.57147 5.25 5.6875 5.25ZM8.75 5.6875C8.75 5.57147 8.70391 5.46019 8.62186 5.37814C8.53981 5.29609 8.42853 5.25 8.3125 5.25C8.19647 5.25 8.08519 5.29609 8.00314 5.37814C7.92109 5.46019 7.875 5.57147 7.875 5.6875V10.9375C7.875 11.0535 7.92109 11.1648 8.00314 11.2469C8.08519 11.3289 8.19647 11.375 8.3125 11.375C8.42853 11.375 8.53981 11.3289 8.62186 11.2469C8.70391 11.1648 8.75 11.0535 8.75 10.9375V5.6875Z" fill="#303030"/>
</svg>
