<svg width="14" height="14" viewBox="0 0 14 14" fill="none" xmlns="http://www.w3.org/2000/svg">
<path d="M0.773262 13.4962L0.772128 13.4962C0.734916 13.4961 0.698125 13.4883 0.664093 13.4733C0.630065 13.4582 0.599539 13.4362 0.574457 13.4087L0.574489 13.4087L0.569984 13.4039C0.545027 13.3773 0.525984 13.3457 0.514103 13.3111C0.502237 13.2767 0.497782 13.2401 0.50103 13.2038C0.501034 13.2037 0.501038 13.2037 0.501042 13.2036L0.67281 11.3149L8.88581 3.10479L10.8958 5.11419L2.68518 13.3233L0.795882 13.4952L0.795297 13.4952C0.787977 13.4959 0.780623 13.4962 0.773262 13.4962ZM13.4211 2.58813L12.1453 3.86394L10.1361 1.85467L11.4119 0.578858L11.4121 0.578663C11.437 0.553722 11.4666 0.53394 11.4991 0.520445C11.5317 0.506947 11.5666 0.5 11.6018 0.5C11.6371 0.5 11.672 0.506947 11.7045 0.520445C11.7371 0.533942 11.7667 0.553724 11.7916 0.578661L11.7918 0.578858L13.4211 2.20822L13.4213 2.20842C13.4463 2.23333 13.4661 2.26291 13.4796 2.29547C13.4931 2.32803 13.5 2.36293 13.5 2.39818C13.5 2.43342 13.4931 2.46832 13.4796 2.50089C13.4661 2.53345 13.4463 2.56303 13.4213 2.58793L13.4211 2.58813Z" stroke="#303030"/>
</svg>
