<svg width="28" height="23" viewBox="0 0 28 23" fill="none" xmlns="http://www.w3.org/2000/svg">
<path d="M4.6 0C3.38 0 2.20998 0.484641 1.34731 1.34731C0.484641 2.20998 0 3.38 0 4.6V5.0623L13.8 12.4936L27.6 5.0646V4.6C27.6 3.38 27.1154 2.20998 26.2527 1.34731C25.39 0.484641 24.22 0 23 0H4.6ZM27.6 7.6751L14.3451 14.812C14.1776 14.9022 13.9903 14.9494 13.8 14.9494C13.6097 14.9494 13.4224 14.9022 13.2549 14.812L0 7.6751V18.4C0 19.62 0.484641 20.79 1.34731 21.6527C2.20998 22.5154 3.38 23 4.6 23H23C24.22 23 25.39 22.5154 26.2527 21.6527C27.1154 20.79 27.6 19.62 27.6 18.4V7.6751Z" fill="#349EB8"/>
</svg>
