<svg width="18" height="15" viewBox="0 0 18 15" fill="none" xmlns="http://www.w3.org/2000/svg">
<path d="M17 4.373V11.5C17 12.163 16.7366 12.7989 16.2678 13.2678C15.7989 13.7366 15.163 14 14.5 14H3.5C2.83696 14 2.20107 13.7366 1.73223 13.2678C1.26339 12.7989 1 12.163 1 11.5V4.373L8.746 8.931C8.82295 8.97638 8.91066 9.00032 9 9.00032C9.08934 9.00032 9.17705 8.97638 9.254 8.931L17 4.373ZM14.5 1C15.1151 0.999903 15.7087 1.22661 16.1672 1.63674C16.6257 2.04687 16.9168 2.61164 16.985 3.223L9 7.92L1.015 3.223C1.08316 2.61164 1.37432 2.04687 1.83279 1.63674C2.29127 1.22661 2.88485 0.999903 3.5 1H14.5Z" stroke="#303030"/>
</svg>
