<svg width="22" height="23" viewBox="0 0 22 23" fill="none" xmlns="http://www.w3.org/2000/svg">
<path d="M9.99998 22.8535C10.4199 22.8438 10.8229 22.6859 11.1377 22.4078C11.4525 22.1296 11.6587 21.7491 11.72 21.3335H8.21332C8.2763 21.7604 8.4922 22.1498 8.82085 22.4294C9.14951 22.709 9.56853 22.8597 9.99998 22.8535Z" fill="#989898"/>
<path d="M19.6733 18.5536C19.0305 17.9805 18.4676 17.3235 18 16.6003C17.4895 15.602 17.1835 14.5117 17.1 13.3936V10.1003C17.0973 9.70023 17.0616 9.3011 16.9933 8.90693C16.4686 8.80204 15.9643 8.61293 15.5 8.34693C15.677 8.91682 15.7669 9.51018 15.7667 10.1069V13.4003C15.8484 14.7643 16.2236 16.0946 16.8667 17.3003C17.3269 18.0296 17.8731 18.7011 18.4933 19.3003H1.41999C2.04026 18.7011 2.58639 18.0296 3.04666 17.3003C3.68973 16.0946 4.06495 14.7643 4.14666 13.4003V10.1003C4.14315 9.32872 4.29186 8.56406 4.58429 7.85007C4.87671 7.13609 5.3071 6.48679 5.8508 5.93937C6.39451 5.39195 7.04086 4.95715 7.75284 4.65987C8.46482 4.36259 9.22844 4.20867 9.99999 4.20693C11.1292 4.20783 12.233 4.54176 13.1733 5.16693C13.0697 4.78625 13.0115 4.39463 13 4.00026V3.58026C12.3039 3.23783 11.5561 3.01259 10.7867 2.91359V2.07359C10.7867 1.83755 10.6929 1.61118 10.526 1.44427C10.3591 1.27736 10.1327 1.18359 9.89666 1.18359C9.66062 1.18359 9.43424 1.27736 9.26733 1.44427C9.10043 1.61118 9.00666 1.83755 9.00666 2.07359V2.94693C7.2838 3.18996 5.70704 4.04809 4.56747 5.36288C3.4279 6.67768 2.80248 8.36035 2.80666 10.1003V13.3936C2.72316 14.5117 2.41718 15.602 1.90666 16.6003C1.44725 17.3218 0.893455 17.9788 0.259992 18.5536C0.18888 18.6161 0.131886 18.693 0.0928035 18.7792C0.0537209 18.8654 0.0334451 18.9589 0.0333252 19.0536V19.9603C0.0333252 20.1371 0.103563 20.3066 0.228587 20.4317C0.353612 20.5567 0.523181 20.6269 0.699992 20.6269H19.2333C19.4101 20.6269 19.5797 20.5567 19.7047 20.4317C19.8298 20.3066 19.9 20.1371 19.9 19.9603V19.0536C19.8999 18.9589 19.8796 18.8654 19.8405 18.7792C19.8014 18.693 19.7444 18.6161 19.6733 18.5536Z" fill="#989898"/>
<path d="M18 7.33317C19.841 7.33317 21.3334 5.84079 21.3334 3.99984C21.3334 2.15889 19.841 0.666504 18 0.666504C16.1591 0.666504 14.6667 2.15889 14.6667 3.99984C14.6667 5.84079 16.1591 7.33317 18 7.33317Z" fill="#989898"/>
</svg>
