<svg width="22" height="20" viewBox="0 0 22 20" fill="none" xmlns="http://www.w3.org/2000/svg">
<path d="M13.25 17H16.25V20H13.25V17ZM18.5 17H21.5V20H18.5V17ZM13.25 11.75H16.25V14.75H13.25V11.75ZM18.5 11.75H21.5V14.75H18.5V11.75Z" fill="#989898"/>
<path d="M11.75 17H2V6.5H20V10.25H21.5V6.5C21.4996 6.1023 21.3414 5.721 21.0602 5.43978C20.779 5.15856 20.3977 5.0004 20 5H15.5V2C15.4996 1.6023 15.3414 1.221 15.0602 0.939778C14.779 0.65856 14.3977 0.500397 14 0.5H8C7.6023 0.500397 7.221 0.65856 6.93978 0.939778C6.65856 1.221 6.5004 1.6023 6.5 2V5H2C1.6023 5.0004 1.221 5.15856 0.939778 5.43978C0.65856 5.721 0.500397 6.1023 0.5 6.5V17C0.500397 17.3977 0.65856 17.779 0.939778 18.0602C1.221 18.3414 1.6023 18.4996 2 18.5H11.75V17ZM8 2H14V5H8V2Z" fill="#989898"/>
</svg>
