<svg width="21" height="23" viewBox="0 0 21 23" fill="none" xmlns="http://www.w3.org/2000/svg">
<path d="M17.9688 10.0625H16.8906V6.82812C16.8906 3.06367 13.827 0 10.0625 0C6.29805 0 3.23438 3.06367 3.23438 6.82812V10.0625H2.15625C0.96582 10.0625 0 11.0283 0 12.2188V20.8438C0 22.0342 0.96582 23 2.15625 23H17.9688C19.1592 23 20.125 22.0342 20.125 20.8438V12.2188C20.125 11.0283 19.1592 10.0625 17.9688 10.0625ZM13.2969 10.0625H6.82812V6.82812C6.82812 5.04473 8.2791 3.59375 10.0625 3.59375C11.8459 3.59375 13.2969 5.04473 13.2969 6.82812V10.0625Z" fill="#349EB8"/>
</svg>
