<svg width="12" height="16" viewBox="0 0 12 16" fill="none" xmlns="http://www.w3.org/2000/svg">
<path d="M2.68803 1.30717L3.45661 1.06637C4.17734 0.840965 4.94736 1.20567 5.25593 1.91828L5.87023 3.33789C6.13738 3.956 5.98881 4.68331 5.50308 5.13552L4.14948 6.39413C4.23306 7.14734 4.49163 7.88865 4.9245 8.61806C5.33556 9.32376 5.88692 9.94146 6.54596 10.4346L8.1717 9.90257C8.78743 9.70167 9.45887 9.93337 9.83602 10.4773L10.7167 11.7443C11.156 12.3771 11.0768 13.2493 10.5317 13.7855L9.94817 14.3602C9.36673 14.9321 8.536 15.14 7.76812 14.9048C5.9538 14.3504 4.28734 12.7047 2.76589 9.96767C1.24229 7.22644 0.70442 4.89961 1.153 2.98999C1.34157 2.18638 1.92516 1.54587 2.68803 1.30717V1.30717Z" stroke="#303030"/>
</svg>
