<svg width="23" height="23" viewBox="0 0 23 23" fill="none" xmlns="http://www.w3.org/2000/svg">
<path d="M4.40323 16.7906V20.9035L8.51614 19.8874L11.6129 22.9841L14.7097 19.8874L18.8226 20.9035V16.7906L22.9839 15.7261L20.9032 11.6132L22.9839 7.50025L18.8226 6.43574V2.32283L14.7097 3.33896L11.6129 0.242188L8.51614 3.33896L4.40323 2.32283V6.43574L0.241943 7.50025L2.32259 11.6132L0.241943 15.7261L4.40323 16.7906ZM4.1613 10.6938L3.24194 8.8067L4.8871 8.41961C5.37098 8.32283 5.75001 8.08896 6.0242 7.71799C6.2984 7.34703 6.43549 6.91961 6.43549 6.43574V4.98412L7.98388 5.41961H8.51614C9.06452 5.41961 9.5484 5.20993 9.96775 4.79058L11.6129 3.14541L13.2581 4.79058C13.6774 5.20993 14.1613 5.41961 14.7097 5.41961C14.9032 5.41961 15.0807 5.38735 15.2419 5.32283L16.7903 4.98412V6.43574C16.7903 6.91961 16.9274 7.34703 17.2016 7.71799C17.4758 8.08896 17.8548 8.32283 18.3387 8.41961L19.9839 8.8067L19.0645 10.6938C18.7419 11.3067 18.7419 11.9196 19.0645 12.5325L19.9839 14.4196L18.3387 14.8067C17.8548 14.9035 17.4758 15.1373 17.2016 15.5083C16.9274 15.8793 16.7903 16.3067 16.7903 16.7906V18.2422L15.2419 17.8067H14.7097C14.1613 17.8067 13.6774 18.0164 13.2581 18.4357L11.6129 20.0809L9.96775 18.4357C9.5484 18.0164 9.06452 17.8067 8.51614 17.8067C8.32259 17.8067 8.14517 17.839 7.98388 17.9035L6.43549 18.2422V16.7906C6.43549 16.3067 6.2984 15.8793 6.0242 15.5083C5.75001 15.1373 5.37098 14.9035 4.8871 14.8067L3.24194 14.4196L4.1613 12.5325C4.48388 11.9196 4.48388 11.3067 4.1613 10.6938ZM10.5968 15.1454L15.4355 10.2583C15.8871 9.8067 15.8871 9.32283 15.4355 8.8067C14.9516 8.38735 14.4678 8.38735 13.9839 8.8067L10.5968 12.2422L9.24194 10.8873C8.75807 10.468 8.2742 10.468 7.79033 10.8873C7.37098 11.3712 7.37098 11.8551 7.79033 12.339L10.5968 15.1454Z" fill="#989898"/>
</svg>
