<svg width="17" height="17" viewBox="0 0 17 17" fill="none" xmlns="http://www.w3.org/2000/svg">
<path fill-rule="evenodd" clip-rule="evenodd" d="M7.76943 0.744141C3.54972 0.744141 0.128967 4.08934 0.128967 8.21586C0.128967 12.3424 3.54972 15.6876 7.76943 15.6876C9.5742 15.6876 11.2328 15.0756 12.5402 14.0524L15.0236 16.4746L15.0897 16.5303C15.3202 16.6971 15.6471 16.6781 15.8557 16.4736C16.0852 16.2486 16.0848 15.8842 15.8547 15.6598L13.4004 13.266C14.6483 11.9362 15.4099 10.163 15.4099 8.21586C15.4099 4.08934 11.9891 0.744141 7.76943 0.744141ZM7.76952 1.89499C11.3393 1.89499 14.2331 4.72494 14.2331 8.21586C14.2331 11.7068 11.3393 14.5367 7.76952 14.5367C4.19975 14.5367 1.30589 11.7068 1.30589 8.21586C1.30589 4.72494 4.19975 1.89499 7.76952 1.89499Z" fill="#303030"/>
</svg>
