<svg width="18" height="16" viewBox="0 0 18 16" fill="none" xmlns="http://www.w3.org/2000/svg">
<mask id="path-1-inside-1_1229_1460" fill="white">
<path d="M3 0.5C2.20435 0.5 1.44129 0.81607 0.87868 1.37868C0.31607 1.94129 0 2.70435 0 3.5V3.8015L9 8.648L18 3.803V3.5C18 2.70435 17.6839 1.94129 17.1213 1.37868C16.5587 0.81607 15.7956 0.5 15 0.5H3ZM18 5.5055L9.3555 10.16C9.24624 10.2188 9.12409 10.2496 9 10.2496C8.87591 10.2496 8.75376 10.2188 8.6445 10.16L0 5.5055V12.5C0 13.2956 0.31607 14.0587 0.87868 14.6213C1.44129 15.1839 2.20435 15.5 3 15.5H15C15.7956 15.5 16.5587 15.1839 17.1213 14.6213C17.6839 14.0587 18 13.2956 18 12.5V5.5055Z"/>
</mask>
<path d="M3 0.5V-1V0.5ZM0 3.5H-1.5H0ZM0 3.8015H-1.5V4.69741L-0.711189 5.12219L0 3.8015ZM9 8.648L8.28881 9.96869L8.99989 10.3516L9.71102 9.96878L9 8.648ZM18 3.803L18.711 5.12378L19.5 4.69904V3.803H18ZM15 0.5V-1V0.5ZM18 5.5055H19.5V2.99423L17.2889 4.18478L18 5.5055ZM9.3555 10.16L10.0665 11.4808L10.0666 11.4807L9.3555 10.16ZM8.6445 10.16L7.93338 11.4807L7.9335 11.4808L8.6445 10.16ZM0 5.5055L0.711122 4.18478L-1.5 2.99423V5.5055H0ZM0 12.5H-1.5H0ZM3 -1C1.80653 -1 0.661933 -0.525895 -0.181981 0.318019L1.93934 2.43934C2.22064 2.15804 2.60217 2 3 2V-1ZM-0.181981 0.318019C-1.02589 1.16193 -1.5 2.30653 -1.5 3.5H1.5C1.5 3.10217 1.65804 2.72064 1.93934 2.43934L-0.181981 0.318019ZM-1.5 3.5V3.8015H1.5V3.5H-1.5ZM-0.711189 5.12219L8.28881 9.96869L9.71119 7.32731L0.711189 2.48081L-0.711189 5.12219ZM9.71102 9.96878L18.711 5.12378L17.289 2.48222L8.28898 7.32722L9.71102 9.96878ZM19.5 3.803V3.5H16.5V3.803H19.5ZM19.5 3.5C19.5 2.30653 19.0259 1.16193 18.182 0.318019L16.0607 2.43934C16.342 2.72064 16.5 3.10218 16.5 3.5H19.5ZM18.182 0.318019C17.3381 -0.525894 16.1935 -1 15 -1V2C15.3978 2 15.7794 2.15804 16.0607 2.43934L18.182 0.318019ZM15 -1H3V2H15V-1ZM17.2889 4.18478L8.64438 8.83928L10.0666 11.4807L18.7111 6.82622L17.2889 4.18478ZM8.6445 8.83921C8.75376 8.7804 8.87591 8.74961 9 8.74961V11.7496C9.37227 11.7496 9.73872 11.6572 10.0665 11.4808L8.6445 8.83921ZM9 8.74961C9.12409 8.74961 9.24624 8.7804 9.3555 8.83921L7.9335 11.4808C8.26128 11.6572 8.62773 11.7496 9 11.7496V8.74961ZM9.35562 8.83928L0.711122 4.18478L-0.711122 6.82622L7.93338 11.4807L9.35562 8.83928ZM-1.5 5.5055V12.5H1.5V5.5055H-1.5ZM-1.5 12.5C-1.5 13.6935 -1.02589 14.8381 -0.181981 15.682L1.93934 13.5607C1.65804 13.2794 1.5 12.8978 1.5 12.5H-1.5ZM-0.181981 15.682C0.661933 16.5259 1.80653 17 3 17V14C2.60218 14 2.22064 13.842 1.93934 13.5607L-0.181981 15.682ZM3 17H15V14H3V17ZM15 17C16.1935 17 17.3381 16.5259 18.182 15.682L16.0607 13.5607C15.7794 13.842 15.3978 14 15 14V17ZM18.182 15.682C19.0259 14.8381 19.5 13.6935 19.5 12.5H16.5C16.5 12.8978 16.342 13.2794 16.0607 13.5607L18.182 15.682ZM19.5 12.5V5.5055H16.5V12.5H19.5Z" fill="#989898" mask="url(#path-1-inside-1_1229_1460)"/>
</svg>
