<svg width="22" height="12" viewBox="0 0 22 12" fill="none" xmlns="http://www.w3.org/2000/svg">
<path d="M20 0.75H15.5V2.25H20V5.25H17V6.75H20V9.75H15.5V11.25H20C20.3976 11.2494 20.7788 11.0912 21.06 10.81C21.3412 10.5288 21.4994 10.1476 21.5 9.75V2.25C21.4996 1.8523 21.3414 1.471 21.0602 1.18978C20.779 0.90856 20.3977 0.750397 20 0.75ZM14 11.25H8V6.75C8.0004 6.3523 8.15856 5.971 8.43978 5.68978C8.721 5.40856 9.1023 5.2504 9.5 5.25H12.5V2.25H8V0.75H12.5C12.8977 0.750397 13.279 0.90856 13.5602 1.18978C13.8414 1.471 13.9996 1.8523 14 2.25V5.25C13.9996 5.6477 13.8414 6.029 13.5602 6.31022C13.279 6.59144 12.8977 6.7496 12.5 6.75H9.5V9.75H14V11.25ZM0.875 10.875V10.125H3.125V1.875H0.875V1.125H3.875V10.125H6.125V10.875H0.875Z" fill="#989898"/>
</svg>
