<svg width="52" height="52" viewBox="0 0 52 52" fill="none" xmlns="http://www.w3.org/2000/svg">
<path d="M48.2857 27.8571V37.1428H3.71429V7.42852H22.2857V3.71423H3.71429C2.7292 3.71423 1.78445 4.10556 1.08789 4.80212C0.391325 5.49869 0 6.44343 0 7.42852V37.1428C0 38.1279 0.391325 39.0726 1.08789 39.7692C1.78445 40.4658 2.7292 40.8571 3.71429 40.8571H18.5714V48.2857H11.1429V51.9999H40.8571V48.2857H33.4286V40.8571H48.2857C49.2708 40.8571 50.2155 40.4658 50.9121 39.7692C51.6087 39.0726 52 38.1279 52 37.1428V27.8571H48.2857ZM29.7143 48.2857H22.2857V40.8571H29.7143V48.2857Z" fill="#349EB8"/>
<path d="M52 14.8571V11.1429H48.0981C47.8586 9.98032 47.397 8.87493 46.7387 7.88729L49.5059 5.12014L46.8799 2.49414L44.1127 5.26129C43.1251 4.60295 42.0197 4.14137 40.8571 3.90186V0H37.1429V3.90186C35.9803 4.14137 34.8749 4.60295 33.8873 5.26129L31.1201 2.49414L28.4941 5.12014L31.2613 7.88729C30.6029 8.87493 30.1414 9.98032 29.9019 11.1429H26V14.8571H29.9019C30.1414 16.0197 30.6029 17.1251 31.2613 18.1127L28.4941 20.8799L31.1201 23.5059L33.8873 20.7387C34.8749 21.397 35.9803 21.8586 37.1429 22.0981V26H40.8571V22.0981C42.0197 21.8586 43.1251 21.397 44.1127 20.7387L46.8799 23.5059L49.5059 20.8799L46.7387 18.1127C47.397 17.1251 47.8586 16.0197 48.0981 14.8571H52ZM39 18.5714C37.8981 18.5714 36.8209 18.2447 35.9047 17.6325C34.9885 17.0203 34.2744 16.1501 33.8527 15.1321C33.431 14.114 33.3206 12.9938 33.5356 11.9131C33.7506 10.8323 34.2812 9.83958 35.0604 9.0604C35.8396 8.28123 36.8323 7.7506 37.9131 7.53562C38.9938 7.32065 40.114 7.43098 41.1321 7.85267C42.1501 8.27436 43.0203 8.98846 43.6325 9.90468C44.2447 10.8209 44.5714 11.8981 44.5714 13C44.57 14.4772 43.9825 15.8934 42.938 16.938C41.8934 17.9825 40.4772 18.57 39 18.5714Z" fill="#349EB8"/>
</svg>
