<svg width="79" height="52" viewBox="0 0 79 52" fill="none" xmlns="http://www.w3.org/2000/svg">
<path d="M39.2227 35.3986C42.3702 32.7507 44.6274 29.199 45.6882 25.225C46.749 21.251 46.5621 17.047 45.1529 13.1827C43.7437 9.31852 41.1803 5.98111 37.8103 3.62296C34.4403 1.26481 30.4266 0 26.3134 0C22.2003 0 18.1866 1.26481 14.8166 3.62296C11.4465 5.98111 8.88314 9.31852 7.47393 13.1827C6.06472 17.047 5.87786 21.251 6.93867 25.225C7.99949 29.199 10.2567 32.7507 13.4042 35.3986C8.29955 37.7086 3.9069 41.3439 0.682976 45.9265C0.110786 46.7413 -0.114887 47.7497 0.0554564 48.7307C0.2258 49.7116 0.778251 50.5849 1.59164 51.1591C2.22223 51.6098 2.97852 51.851 3.75362 51.8484C4.3565 51.8502 4.95081 51.7057 5.48562 51.4274C6.02042 51.149 6.47975 50.7452 6.82426 50.2504C9.02108 47.1215 11.939 44.5676 15.3312 42.8044C18.7234 41.0413 22.4903 40.1208 26.3134 40.1208C30.1365 40.1208 33.9034 41.0413 37.2957 42.8044C40.6879 44.5676 43.6058 47.1215 45.8026 50.2504C46.075 50.6809 46.4319 51.0515 46.8519 51.3398C47.2718 51.6281 47.7459 51.8281 48.2455 51.9276C48.7451 52.0271 49.2596 52.024 49.758 51.9186C50.2563 51.8132 50.7281 51.6077 51.1446 51.3144C51.5611 51.0212 51.9136 50.6463 52.1809 50.2127C52.4481 49.7791 52.6245 49.2957 52.6992 48.7918C52.774 48.2879 52.7456 47.7741 52.6157 47.2816C52.4859 46.789 52.2573 46.328 51.9439 45.9265C48.72 41.3439 44.3273 37.7086 39.2227 35.3986ZM13.7802 20.0767C13.7802 17.5979 14.5153 15.1747 15.8924 13.1136C17.2696 11.0525 19.227 9.44611 21.5172 8.4975C23.8073 7.54889 26.3273 7.30069 28.7585 7.78429C31.1897 8.26789 33.423 9.46156 35.1758 11.2144C36.9286 12.9672 38.1222 15.2004 38.6058 17.6316C39.0894 20.0628 38.8412 22.5828 37.8926 24.873C36.944 27.1631 35.3376 29.1205 33.2765 30.4977C31.2154 31.8749 28.7923 32.6099 26.3134 32.6099C22.9894 32.6099 19.8015 31.2895 17.4511 28.939C15.1007 26.5886 13.7802 23.4007 13.7802 20.0767ZM76.5717 51.1591C75.9411 51.6098 75.1848 51.851 74.4097 51.8484C73.8078 51.845 73.2153 51.6982 72.6814 51.4203C72.1474 51.1425 71.6873 50.7414 71.3391 50.2504C69.1375 47.127 66.2184 44.5776 62.8271 42.8165C59.4357 41.0554 55.6712 40.1341 51.8499 40.1299C50.8527 40.1299 49.8963 39.7337 49.1912 39.0286C48.4861 38.3235 48.0899 37.3671 48.0899 36.3699C48.0899 35.3727 48.4861 34.4163 49.1912 33.7112C49.8963 33.0061 50.8527 32.6099 51.8499 32.6099C55.1739 32.6099 58.3618 31.2895 60.7122 28.939C63.0626 26.5886 64.3831 23.4007 64.3831 20.0767C64.3831 16.7527 63.0626 13.5648 60.7122 11.2144C58.3618 8.86393 55.1739 7.54347 51.8499 7.54347C50.7055 7.54131 49.5664 7.69952 48.4659 8.01346C47.988 8.15601 47.4865 8.20207 46.9907 8.14895C46.4948 8.09583 46.0145 7.94461 45.5776 7.70407C45.1408 7.46353 44.7561 7.13849 44.4461 6.74788C44.1361 6.35726 43.9068 5.90888 43.7717 5.42882C43.6367 4.94876 43.5984 4.44663 43.6593 3.95166C43.7201 3.45668 43.8788 2.97876 44.1261 2.54571C44.3735 2.11265 44.7044 1.73313 45.0998 1.42922C45.4953 1.12531 45.9472 0.903104 46.4293 0.775524C48.1923 0.273596 50.0168 0.0204841 51.8499 0.0235299C55.9658 0.0115771 59.9854 1.2684 63.3613 3.62287C66.7373 5.97734 69.3056 9.31505 70.7166 13.1816C72.1276 17.0481 72.3127 21.2555 71.2467 25.2309C70.1806 29.2064 67.9153 32.7568 64.7591 35.3986C69.8638 37.7086 74.2564 41.3439 77.4803 45.9265C77.7677 46.3285 77.9724 46.7836 78.0823 47.2654C78.1922 47.7472 78.2053 48.246 78.1208 48.7329C78.0362 49.2198 77.8557 49.685 77.5898 50.1015C77.3239 50.518 76.9778 50.8775 76.5717 51.1591Z" fill="#349EB8"/>
</svg>
