<svg width="52" height="52" viewBox="0 0 52 52" fill="none" xmlns="http://www.w3.org/2000/svg">
<path d="M0 1.73333C0 1.27362 0.182619 0.832745 0.507682 0.507681C0.832745 0.182618 1.27362 0 1.73333 0H6.93333C7.31997 0.000106813 7.69548 0.129482 8.00013 0.367552C8.30479 0.605623 8.5211 0.938717 8.61467 1.31387L10.0187 6.93333H50.2667C50.5212 6.93357 50.7725 6.98985 51.0028 7.09818C51.2331 7.2065 51.4368 7.36422 51.5992 7.56012C51.7617 7.75602 51.879 7.9853 51.9429 8.23166C52.0068 8.47803 52.0156 8.73543 51.9688 8.9856L46.7688 36.7189C46.6944 37.1161 46.4836 37.4749 46.1728 37.7331C45.862 37.9914 45.4708 38.133 45.0667 38.1333H13.8667C13.4626 38.133 13.0713 37.9914 12.7605 37.7331C12.4497 37.4749 12.2389 37.1161 12.1645 36.7189L6.968 9.0376L5.58133 3.46667H1.73333C1.27362 3.46667 0.832745 3.28405 0.507682 2.95899C0.182619 2.63392 0 2.19304 0 1.73333ZM10.7536 10.4L15.3053 34.6667H43.628L48.1797 10.4H10.7536ZM17.3333 38.1333C15.4945 38.1333 13.731 38.8638 12.4307 40.1641C11.1305 41.4643 10.4 43.2278 10.4 45.0667C10.4 46.9055 11.1305 48.669 12.4307 49.9693C13.731 51.2695 15.4945 52 17.3333 52C19.1722 52 20.9357 51.2695 22.2359 49.9693C23.5362 48.669 24.2667 46.9055 24.2667 45.0667C24.2667 43.2278 23.5362 41.4643 22.2359 40.1641C20.9357 38.8638 19.1722 38.1333 17.3333 38.1333ZM41.6 38.1333C39.7612 38.1333 37.9976 38.8638 36.6974 40.1641C35.3971 41.4643 34.6667 43.2278 34.6667 45.0667C34.6667 46.9055 35.3971 48.669 36.6974 49.9693C37.9976 51.2695 39.7612 52 41.6 52C43.4388 52 45.2024 51.2695 46.5026 49.9693C47.8029 48.669 48.5333 46.9055 48.5333 45.0667C48.5333 43.2278 47.8029 41.4643 46.5026 40.1641C45.2024 38.8638 43.4388 38.1333 41.6 38.1333ZM17.3333 41.6C18.2528 41.6 19.1345 41.9652 19.7846 42.6154C20.4348 43.2655 20.8 44.1473 20.8 45.0667C20.8 45.9861 20.4348 46.8678 19.7846 47.518C19.1345 48.1681 18.2528 48.5333 17.3333 48.5333C16.4139 48.5333 15.5322 48.1681 14.882 47.518C14.2319 46.8678 13.8667 45.9861 13.8667 45.0667C13.8667 44.1473 14.2319 43.2655 14.882 42.6154C15.5322 41.9652 16.4139 41.6 17.3333 41.6ZM41.6 41.6C42.5194 41.6 43.4012 41.9652 44.0513 42.6154C44.7014 43.2655 45.0667 44.1473 45.0667 45.0667C45.0667 45.9861 44.7014 46.8678 44.0513 47.518C43.4012 48.1681 42.5194 48.5333 41.6 48.5333C40.6806 48.5333 39.7988 48.1681 39.1487 47.518C38.4986 46.8678 38.1333 45.9861 38.1333 45.0667C38.1333 44.1473 38.4986 43.2655 39.1487 42.6154C39.7988 41.9652 40.6806 41.6 41.6 41.6Z" fill="white"/>
</svg>
