<svg width="20" height="22" viewBox="0 0 20 22" fill="none" xmlns="http://www.w3.org/2000/svg">
<path d="M9.52136 11C12.2828 11 14.5214 8.76142 14.5214 6C14.5214 3.23858 12.2828 1 9.52136 1C6.75994 1 4.52136 3.23858 4.52136 6C4.52136 8.76142 6.75994 11 9.52136 11Z" stroke="#989898" stroke-width="1.5"/>
<path d="M14.5214 13H14.8734C15.6044 13.0002 16.3103 13.2674 16.8583 13.7513C17.4063 14.2352 17.7587 14.9026 17.8494 15.628L18.2404 18.752C18.2755 19.0334 18.2504 19.3191 18.1668 19.5901C18.0831 19.8611 17.9427 20.1112 17.755 20.3238C17.5673 20.5364 17.3365 20.7066 17.0779 20.8232C16.8194 20.9398 16.539 21.0001 16.2554 21H2.78736C2.50374 21.0001 2.22336 20.9398 1.96481 20.8232C1.70626 20.7066 1.47546 20.5364 1.28774 20.3238C1.10001 20.1112 0.959649 19.8611 0.875966 19.5901C0.792283 19.3191 0.767193 19.0334 0.802362 18.752L1.19236 15.628C1.28306 14.9022 1.63578 14.2346 2.18419 13.7506C2.73261 13.2667 3.43894 12.9997 4.17036 13H4.52136" stroke="#989898" stroke-width="1.5" stroke-linecap="round" stroke-linejoin="round"/>
</svg>
