<svg width="48" height="48" viewBox="0 0 48 48" fill="none" xmlns="http://www.w3.org/2000/svg">
<rect opacity="0.5" x="0.5" y="0.5" width="47" height="47" rx="3.5" fill="#349EB8" fill-opacity="0.08" stroke="#349EB8"/>
<path d="M33.8763 30.7698C33.3313 29.4788 32.5403 28.306 31.5474 27.317C30.5576 26.325 29.3851 25.5342 28.0945 24.9881C28.083 24.9823 28.0714 24.9794 28.0599 24.9736C29.86 23.6734 31.0302 21.5554 31.0302 19.1658C31.0302 15.2073 27.8229 12 23.8644 12C19.9059 12 16.6986 15.2073 16.6986 19.1658C16.6986 21.5554 17.8688 23.6734 19.6689 24.9765C19.6574 24.9823 19.6458 24.9852 19.6342 24.991C18.3398 25.5371 17.1782 26.3201 16.1814 27.3198C15.1894 28.3097 14.3986 29.4822 13.8525 30.7727C13.316 32.0362 13.0266 33.3907 13.0001 34.7631C12.9993 34.7939 13.0047 34.8246 13.016 34.8533C13.0273 34.882 13.0442 34.9082 13.0657 34.9303C13.0872 34.9523 13.113 34.9699 13.1414 34.9819C13.1698 34.9938 13.2004 35 13.2312 35H14.9649C15.092 35 15.1932 34.8989 15.1961 34.7746C15.2538 32.544 16.1496 30.4549 17.733 28.8715C19.3713 27.2332 21.5471 26.3317 23.8644 26.3317C26.1817 26.3317 28.3575 27.2332 29.9958 28.8715C31.5792 30.4549 32.4749 32.544 32.5327 34.7746C32.5356 34.9018 32.6368 35 32.7639 35H34.4976C34.5284 35 34.5589 34.9938 34.5874 34.9819C34.6158 34.9699 34.6415 34.9523 34.6631 34.9303C34.6846 34.9082 34.7015 34.882 34.7128 34.8533C34.7241 34.8246 34.7295 34.7939 34.7287 34.7631C34.6998 33.3819 34.4138 32.0383 33.8763 30.7698ZM23.8644 24.1357C22.5381 24.1357 21.2899 23.6185 20.3508 22.6794C19.4118 21.7403 18.8945 20.4921 18.8945 19.1658C18.8945 17.8396 19.4118 16.5913 20.3508 15.6523C21.2899 14.7132 22.5381 14.196 23.8644 14.196C25.1906 14.196 26.4389 14.7132 27.378 15.6523C28.317 16.5913 28.8342 17.8396 28.8342 19.1658C28.8342 20.4921 28.317 21.7403 27.378 22.6794C26.4389 23.6185 25.1906 24.1357 23.8644 24.1357Z" fill="#349EB8"/>
</svg>
