<svg width="20" height="15" viewBox="0 0 20 15" fill="none" xmlns="http://www.w3.org/2000/svg">
<path d="M19.9603 7.10687C19.1762 5.07858 17.8149 3.32451 16.0447 2.06145C14.2745 0.798393 12.1731 0.0817176 10 0C7.82695 0.0817176 5.72547 0.798393 3.9553 2.06145C2.18512 3.32451 0.823847 5.07858 0.0397175 7.10687C-0.0132392 7.25334 -0.0132392 7.41374 0.0397175 7.56021C0.823847 9.58851 2.18512 11.3426 3.9553 12.6056C5.72547 13.8687 7.82695 14.5854 10 14.6671C12.1731 14.5854 14.2745 13.8687 16.0447 12.6056C17.8149 11.3426 19.1762 9.58851 19.9603 7.56021C20.0132 7.41374 20.0132 7.25334 19.9603 7.10687ZM10 13.3337C6.46657 13.3337 2.73313 10.7136 1.37976 7.33354C2.73313 3.95345 6.46657 1.33337 10 1.33337C13.5334 1.33337 17.2669 3.95345 18.6202 7.33354C17.2669 10.7136 13.5334 13.3337 10 13.3337Z" fill="#303030"/>
<path d="M9.99999 3.33337C9.20885 3.33337 8.43546 3.56798 7.77765 4.00752C7.11983 4.44705 6.60713 5.07179 6.30437 5.80271C6.00161 6.53364 5.9224 7.33792 6.07674 8.11387C6.23109 8.88982 6.61206 9.60257 7.17149 10.162C7.73091 10.7214 8.44366 11.1024 9.21961 11.2567C9.99556 11.4111 10.7998 11.3319 11.5308 11.0291C12.2617 10.7264 12.8864 10.2136 13.326 9.55583C13.7655 8.89802 14.0001 8.12464 14.0001 7.33349C14.0001 6.27259 13.5787 5.25515 12.8285 4.50498C12.0783 3.75481 11.0609 3.33337 9.99999 3.33337ZM9.99999 10.0002C9.47256 10.0002 8.95697 9.84383 8.51843 9.5508C8.07989 9.25778 7.73808 8.84129 7.53624 8.35401C7.3344 7.86672 7.28159 7.33053 7.38449 6.81323C7.48739 6.29593 7.74137 5.82077 8.11432 5.44782C8.48727 5.07487 8.96244 4.82088 9.47974 4.71799C9.99703 4.61509 10.5332 4.6679 11.0205 4.86974C11.5078 5.07158 11.9243 5.41338 12.2173 5.85193C12.5103 6.29047 12.6667 6.80606 12.6667 7.33349C12.6667 8.04075 12.3858 8.71905 11.8857 9.21916C11.3856 9.71927 10.7073 10.0002 9.99999 10.0002Z" fill="#303030"/>
</svg>
